<svg width="69" height="85" viewBox="0 0 69 85" fill="none" xmlns="http://www.w3.org/2000/svg">
<path fill-rule="evenodd" clip-rule="evenodd" d="M59.1429 0V1.63462V9.80769H67.3571H69V13.0769H67.3571H59.1429V21.25V22.8846H55.8572V21.25V13.0769H47.6429H46V9.80769H47.6429H55.8572V1.63462V0H59.1429ZM55.1041 36.9835C55.1041 56.8794 33.4988 68.3853 29.4126 70.3836C28.9925 70.5891 28.5075 70.5891 28.0874 70.3836C24.0012 68.3853 2.3959 56.8794 2.3959 36.9835C2.3959 22.5015 14.1949 10.7615 28.75 10.7615C43.3051 10.7615 55.1041 22.5015 55.1041 36.9835ZM52.5525 63.7659C51.8239 63.2277 50.795 63.3793 50.2542 64.1041C49.7135 64.829 49.8657 65.8528 50.5943 66.3909C52.6886 67.9379 53.4612 69.447 53.4612 70.6974C53.4612 71.9478 52.6886 73.457 50.5943 75.0038C48.5141 76.5402 45.4119 77.888 41.5324 78.8431C37.6697 79.7941 33.2588 80.3008 28.75 80.3008C24.2412 80.3008 19.8304 79.7941 15.9675 78.8431C12.0882 77.888 8.98599 76.5402 6.90574 75.0038C4.81146 73.457 4.03876 71.9478 4.03876 70.6974C4.03876 69.447 4.81146 67.9379 6.90574 66.3909C7.63432 65.8528 7.78653 64.829 7.24586 64.1041C6.705 63.3793 5.67601 63.2277 4.94742 63.7659C2.41576 65.6357 0.753052 68.0024 0.753052 70.6974C0.753052 73.3923 2.41576 75.759 4.94742 77.6289C7.49354 79.5093 11.045 80.999 15.1784 82.0165C19.3282 83.0383 24.0068 83.57 28.75 83.57C33.4933 83.57 38.1718 83.0383 42.3216 82.0165C46.4551 80.999 50.0064 79.5093 52.5525 77.6289C55.0842 75.759 56.7469 73.3923 56.7469 70.6974C56.7469 68.0024 55.0842 65.6357 52.5525 63.7659ZM30.5404 22.7825H31.6956L42.2844 50.6731H37.2017L34.9336 44.141H24.0822L21.8191 50.6731H16.7558L27.3061 22.7825H28.442H30.5404ZM25.4027 40.3291H33.6101L29.5016 28.4971L25.4027 40.3291Z" fill="#357F54"/>
</svg>
