<svg width="42" height="52" viewBox="0 0 42 52" fill="none" xmlns="http://www.w3.org/2000/svg">
<path fill-rule="evenodd" clip-rule="evenodd" d="M36 0V1V6H41H42V8H41H36V13V14H34V13V8H29H28V6H29H34V1V0H36ZM33.5417 22.6252C33.5417 34.7968 20.3907 41.8357 17.9033 43.0582C17.6477 43.1839 17.3524 43.1839 17.0968 43.0582C14.6094 41.8357 1.45837 34.7968 1.45837 22.6252C1.45837 13.7656 8.64047 6.5835 17.5 6.5835C26.3596 6.5835 33.5417 13.7656 33.5417 22.6252ZM31.9886 39.0097C31.5451 38.6805 30.9188 38.7732 30.5896 39.2166C30.2604 39.6601 30.353 40.2864 30.7965 40.6156C32.0714 41.562 32.5417 42.4852 32.5417 43.2502C32.5417 44.0151 32.0714 44.9383 30.7965 45.8847C29.5304 46.8246 27.642 47.6491 25.2807 48.2334C22.9294 48.8151 20.2446 49.1252 17.5 49.1252C14.7555 49.1252 12.0707 48.8152 9.7194 48.2334C7.35805 47.6491 5.46973 46.8246 4.20359 45.8847C2.9287 44.9383 2.45837 44.0151 2.45837 43.2502C2.45837 42.4852 2.9287 41.562 4.20359 40.6156C4.64705 40.2864 4.73969 39.6601 4.4105 39.2166C4.08132 38.7732 3.45497 38.6805 3.01151 39.0097C1.4705 40.1536 0.458374 41.6015 0.458374 43.2502C0.458374 44.8988 1.4705 46.3467 3.01151 47.4906C4.56128 48.641 6.72308 49.5523 9.23902 50.1748C11.765 50.7998 14.6128 51.1252 17.5 51.1252C20.3873 51.1252 23.235 50.7998 25.7611 50.1748C28.277 49.5523 30.4388 48.641 31.9886 47.4906C33.5296 46.3467 34.5417 44.8988 34.5417 43.2502C34.5417 41.6015 33.5296 40.1536 31.9886 39.0097ZM17.7696 13.9375H11.7344V31H14.6758V24.4141H18.0287L21.4727 31H24.6133V30.8477L20.7697 23.7365C21.2765 23.5258 21.7295 23.2673 22.1289 22.9609C22.6993 22.5156 23.1407 21.9687 23.4532 21.3203C23.7657 20.6719 23.9219 19.9219 23.9219 19.0703C23.9219 17.9531 23.6758 17.0156 23.1836 16.2578C22.6993 15.4922 22 14.9141 21.086 14.5234C20.1719 14.1328 19.0664 13.9375 17.7696 13.9375ZM14.6758 22.082H17.8164C18.5196 22.082 19.1055 21.957 19.5743 21.707C20.043 21.457 20.3946 21.1172 20.6289 20.6875C20.8711 20.25 20.9922 19.7578 20.9922 19.2109C20.9922 18.6172 20.875 18.1016 20.6407 17.6641C20.4141 17.2187 20.0625 16.8789 19.586 16.6445C19.1094 16.4023 18.5039 16.2812 17.7696 16.2812H14.6758V22.082Z" fill="white"/>
</svg>
