<svg width="42" height="52" viewBox="0 0 42 52" fill="none" xmlns="http://www.w3.org/2000/svg">
<path fill-rule="evenodd" clip-rule="evenodd" d="M36 0V1V6H41H42V8H41H36V13V14H34V13V8H29H28V6H29H34V1V0H36ZM33.5416 22.6252C33.5416 34.7968 20.3906 41.8357 17.9033 43.0582C17.6476 43.1839 17.3524 43.1839 17.0967 43.0582C14.6094 41.8357 1.45837 34.7968 1.45837 22.6252C1.45837 13.7656 8.64038 6.5835 17.5 6.5835C26.3596 6.5835 33.5416 13.7656 33.5416 22.6252ZM31.9885 39.0097C31.545 38.6805 30.9187 38.7732 30.5895 39.2166C30.2604 39.6601 30.353 40.2864 30.7965 40.6156C32.0713 41.562 32.5416 42.4852 32.5416 43.2502C32.5416 44.0151 32.0713 44.9384 30.7965 45.8847C29.5303 46.8246 27.642 47.6491 25.2806 48.2334C22.9294 48.8152 20.2445 49.1252 17.5 49.1252C14.7555 49.1252 12.0707 48.8152 9.71936 48.2334C7.35803 47.6491 5.46973 46.8246 4.20349 45.8847C2.92871 44.9384 2.45837 44.0151 2.45837 43.2502C2.45837 42.4852 2.92871 41.562 4.20349 40.6156C4.64697 40.2864 4.73962 39.6601 4.41052 39.2166C4.0813 38.7732 3.45496 38.6805 3.01147 39.0097C1.47046 40.1536 0.458374 41.6015 0.458374 43.2502C0.458374 44.8988 1.47046 46.3467 3.01147 47.4906C4.56128 48.641 6.72302 49.5523 9.23901 50.1748C11.765 50.7999 14.6128 51.1252 17.5 51.1252C20.3872 51.1252 23.235 50.7999 25.761 50.1748C28.277 49.5523 30.4387 48.641 31.9885 47.4906C33.5295 46.3467 34.5416 44.8988 34.5416 43.2502C34.5416 41.6015 33.5295 40.1536 31.9885 39.0097ZM18.5898 13.9375H19.293L25.7383 31H22.6445L21.2639 27.0039H14.6587L13.2812 31H10.1992L16.6211 13.9375H17.3125H18.5898ZM15.4625 24.6719H20.4583L17.9575 17.4335L15.4625 24.6719Z" fill="white"/>
</svg>
