<svg width="69" height="85" viewBox="0 0 69 85" fill="none" xmlns="http://www.w3.org/2000/svg">
<g clip-path="url(#clip0_914_1955)">
<path fill-rule="evenodd" clip-rule="evenodd" d="M59.1429 0V1.63462V9.80769H67.3571H69V13.0769H67.3571H59.1429V21.25V22.8846H55.8572V21.25V13.0769H47.6429H46V9.80769H47.6429H55.8572V1.63462V0H59.1429ZM55.1042 36.9835C55.1042 56.8794 33.499 68.3853 29.4126 70.3836C28.9927 70.5891 28.5075 70.5891 28.0876 70.3836C24.0012 68.3853 2.3959 56.8794 2.3959 36.9835C2.3959 22.5015 14.1951 10.7615 28.75 10.7615C43.3051 10.7615 55.1042 22.5015 55.1042 36.9835ZM52.5527 63.7659C51.8241 63.2277 50.7952 63.3793 50.2543 64.1041C49.7135 64.829 49.8657 65.8528 50.5943 66.3909C52.6887 67.9379 53.4614 69.447 53.4614 70.6974C53.4614 71.9478 52.6887 73.4568 50.5943 75.0038C48.5142 76.5402 45.4119 77.888 41.5326 78.8431C37.6697 79.7939 33.259 80.3008 28.75 80.3008C24.2412 80.3008 19.8304 79.7941 15.9676 78.8431C12.0882 77.888 8.98599 76.5402 6.90591 75.0038C4.81144 73.4568 4.03876 71.9478 4.03876 70.6974C4.03876 69.447 4.81144 67.9379 6.90591 66.3909C7.63445 65.8528 7.78664 64.829 7.24583 64.1041C6.70503 63.3793 5.67603 63.2277 4.94749 63.7659C2.41583 65.6357 0.753052 68.0024 0.753052 70.6974C0.753052 73.3923 2.41583 75.759 4.94749 77.6289C7.49354 79.5093 11.0451 80.999 15.1784 82.0165C19.3282 83.0381 24.0068 83.57 28.75 83.57C33.4934 83.57 38.1718 83.0381 42.3218 82.0165C46.4551 80.999 50.0066 79.5093 52.5527 77.6289C55.0844 75.759 56.7471 73.3923 56.7471 70.6974C56.7471 68.0024 55.0844 65.6357 52.5527 63.7659ZM29.1929 22.7825H19.278V50.6731H24.1103V39.9077H29.6186L35.2766 50.6731H40.4361V50.4241L34.1217 38.8C34.9543 38.4556 35.6985 38.0331 36.3546 37.5322C37.2917 36.8043 38.0169 35.9104 38.5303 34.8505C39.0437 33.7906 39.3003 32.5646 39.3003 31.1726C39.3003 29.3464 38.896 27.814 38.0873 26.5752C37.2917 25.3238 36.1429 24.3788 34.6413 23.7402C33.1396 23.1017 31.3234 22.7825 29.1929 22.7825ZM24.1103 36.0956H29.2698C30.4251 36.0956 31.3876 35.8913 32.1578 35.4826C32.9278 35.0739 33.5054 34.5185 33.8903 33.8161C34.2882 33.101 34.4872 32.2964 34.4872 31.4024C34.4872 30.432 34.2947 29.5892 33.9097 28.874C33.5375 28.146 32.9598 27.5905 32.177 27.2074C31.394 26.8115 30.3993 26.6135 29.1929 26.6135H24.1103V36.0956Z" fill="#357F54"/>
</g>
<defs>
<clipPath id="clip0_914_1955">
<rect width="69" height="85" fill="white"/>
</clipPath>
</defs>
</svg>
