<svg width="94" height="93" viewBox="0 0 94 93" fill="none" xmlns="http://www.w3.org/2000/svg">
<g filter="url(#filter0_d_914_2625)">
<rect x="11.6445" y="46.3555" width="50" height="50" transform="rotate(-45 11.6445 46.3555)" fill="#7F3551"/>
</g>
<path fill-rule="evenodd" clip-rule="evenodd" d="M48.2938 39.7062L50.7498 37.2502C51.7668 36.2331 52.2754 35.7246 52.887 35.6118C53.1268 35.5676 53.3727 35.5676 53.6125 35.6118C54.2242 35.7246 54.7327 36.2331 55.7498 37.2502L55.7498 37.2502C56.7668 38.2672 57.2754 38.7758 57.3882 39.3874C57.4324 39.6272 57.4324 39.8731 57.3882 40.113C57.2754 40.7246 56.7668 41.2331 55.7498 42.2502L53.3216 44.6784C51.2381 43.4799 49.5077 41.7626 48.2938 39.7062ZM46.8394 41.1605L37.8562 50.1438C37.4311 50.5689 37.2186 50.7814 37.0788 51.0425C36.9391 51.3036 36.8801 51.5983 36.7623 52.1878L35.8969 56.5148C35.8303 56.8474 35.7971 57.0137 35.8917 57.1083C35.9863 57.2029 36.1526 57.1696 36.4852 57.1031L40.8122 56.2377C41.4016 56.1198 41.6964 56.0609 41.9575 55.9211C42.2186 55.7814 42.4311 55.5689 42.8562 55.1438L51.8635 46.1365C49.8309 44.8737 48.1149 43.1696 46.8394 41.1605Z" fill="#FAFAFA"/>
<defs>
<filter id="filter0_d_914_2625" x="0.644531" y="0" width="92.7104" height="92.7109" filterUnits="userSpaceOnUse" color-interpolation-filters="sRGB">
<feFlood flood-opacity="0" result="BackgroundImageFix"/>
<feColorMatrix in="SourceAlpha" type="matrix" values="0 0 0 0 0 0 0 0 0 0 0 0 0 0 0 0 0 0 127 0" result="hardAlpha"/>
<feMorphology radius="1" operator="dilate" in="SourceAlpha" result="effect1_dropShadow_914_2625"/>
<feOffset/>
<feGaussianBlur stdDeviation="5"/>
<feComposite in2="hardAlpha" operator="out"/>
<feColorMatrix type="matrix" values="0 0 0 0 0 0 0 0 0 0 0 0 0 0 0 0 0 0 0.25 0"/>
<feBlend mode="normal" in2="BackgroundImageFix" result="effect1_dropShadow_914_2625"/>
<feBlend mode="normal" in="SourceGraphic" in2="effect1_dropShadow_914_2625" result="shape"/>
</filter>
</defs>
</svg>
