<svg width="94" height="93" viewBox="0 0 94 93" fill="none" xmlns="http://www.w3.org/2000/svg">
<g filter="url(#filter0_d_914_1912)">
<rect x="11.6447" y="46.3555" width="50" height="50" transform="rotate(-45 11.6447 46.3555)" fill="#357F54"/>
</g>
<path fill-rule="evenodd" clip-rule="evenodd" d="M48.294 39.7062L50.75 37.2502C51.767 36.2331 52.2756 35.7246 52.8872 35.6118C53.127 35.5676 53.3729 35.5676 53.6128 35.6118C54.2244 35.7246 54.7329 36.2331 55.75 37.2502L55.75 37.2502C56.767 38.2672 57.2756 38.7758 57.3884 39.3874C57.4326 39.6272 57.4326 39.8731 57.3884 40.113C57.2756 40.7246 56.767 41.2331 55.75 42.2502L53.3218 44.6784C51.2383 43.4799 49.5079 41.7626 48.294 39.7062ZM46.8397 41.1605L37.8564 50.1438C37.4313 50.5689 37.2188 50.7814 37.079 51.0425C36.9393 51.3036 36.8804 51.5983 36.7625 52.1878L35.8971 56.5148C35.8306 56.8474 35.7973 57.0137 35.8919 57.1083C35.9865 57.2029 36.1528 57.1696 36.4854 57.1031L40.8124 56.2377C41.4019 56.1198 41.6966 56.0609 41.9577 55.9211C42.2188 55.7814 42.4313 55.5689 42.8563 55.1438L42.8564 55.1438L51.8637 46.1365C49.8311 44.8737 48.1151 43.1696 46.8397 41.1605Z" fill="#FAFAFA"/>
<defs>
<filter id="filter0_d_914_1912" x="0.644653" y="0" width="92.7107" height="92.7109" filterUnits="userSpaceOnUse" color-interpolation-filters="sRGB">
<feFlood flood-opacity="0" result="BackgroundImageFix"/>
<feColorMatrix in="SourceAlpha" type="matrix" values="0 0 0 0 0 0 0 0 0 0 0 0 0 0 0 0 0 0 127 0" result="hardAlpha"/>
<feMorphology radius="1" operator="dilate" in="SourceAlpha" result="effect1_dropShadow_914_1912"/>
<feOffset/>
<feGaussianBlur stdDeviation="5"/>
<feComposite in2="hardAlpha" operator="out"/>
<feColorMatrix type="matrix" values="0 0 0 0 0 0 0 0 0 0 0 0 0 0 0 0 0 0 0.25 0"/>
<feBlend mode="normal" in2="BackgroundImageFix" result="effect1_dropShadow_914_1912"/>
<feBlend mode="normal" in="SourceGraphic" in2="effect1_dropShadow_914_1912" result="shape"/>
</filter>
</defs>
</svg>
