<svg width="30" height="30" viewBox="0 0 30 30" fill="none" xmlns="http://www.w3.org/2000/svg">
<path fill-rule="evenodd" clip-rule="evenodd" d="M16.294 8.70617L18.75 6.25019C19.767 5.23313 20.2756 4.7246 20.8872 4.61179C21.127 4.56755 21.3729 4.56755 21.6128 4.61179C22.2244 4.7246 22.7329 5.23313 23.75 6.25017L23.75 6.25019C24.767 7.26724 25.2756 7.77577 25.3884 8.38742C25.4326 8.62724 25.4326 8.87313 25.3884 9.11296C25.2756 9.7246 24.767 10.2331 23.75 11.2502L21.3218 13.6784C19.2383 12.4799 17.5079 10.7626 16.294 8.70617ZM14.8397 10.1605L5.85636 19.1438C5.4313 19.5689 5.21877 19.7814 5.07904 20.0425C4.93931 20.3036 4.88036 20.5983 4.76247 21.1878L3.89707 25.5148C3.83055 25.8474 3.79729 26.0137 3.8919 26.1083C3.98651 26.2029 4.15281 26.1696 4.48542 26.1031L8.8124 25.2377C9.40185 25.1198 9.69658 25.0609 9.95768 24.9211C10.2188 24.7814 10.4313 24.5689 10.8563 24.1438L10.8564 24.1438L19.8637 15.1365C17.8311 13.8737 16.1151 12.1696 14.8397 10.1605Z" fill="#FAFAFA"/>
</svg>
