<svg width="37" height="33" viewBox="0 0 37 33" fill="none" xmlns="http://www.w3.org/2000/svg">
<path fill-rule="evenodd" clip-rule="evenodd" d="M2.92893 17.0711C-0.976311 13.1658 -0.976311 6.83418 2.92893 2.92893C6.83417 -0.976308 13.1658 -0.976308 17.0711 2.92893L18.4853 4.34315L19.8995 2.92893C23.8047 -0.976311 30.1364 -0.97631 34.0416 2.92893C37.9469 6.83417 37.9469 13.1658 34.0416 17.0711L32.6274 18.4853L18.4853 32.6274L4.34315 18.4853L2.92893 17.0711ZM19.1152 8.81541L14.0859 8.81541L14.0859 23.0342H16.537V17.5459H19.3311L22.2011 23.0342H24.8183V22.9072L21.6153 16.9812C22.0376 16.8057 22.4151 16.5903 22.748 16.3349C23.2232 15.9639 23.5911 15.5081 23.8515 14.9678C24.1119 14.4274 24.2421 13.8024 24.2421 13.0928C24.2421 12.1618 24.037 11.3805 23.6269 10.749C23.2232 10.111 22.6406 9.62921 21.8788 9.30369C21.1171 8.97817 20.1959 8.81541 19.1152 8.81541ZM16.537 15.6025H19.1542C19.7402 15.6025 20.2285 15.4984 20.6191 15.29C21.0097 15.0817 21.3027 14.7985 21.498 14.4404C21.6998 14.0758 21.8007 13.6657 21.8007 13.2099C21.8007 12.7152 21.7031 12.2855 21.5077 11.9209C21.3189 11.5498 21.026 11.2666 20.6288 11.0713C20.2317 10.8694 19.7271 10.7685 19.1152 10.7685H16.537V15.6025Z" fill="white"/>
</svg>
