<svg width="38" height="33" viewBox="0 0 38 33" fill="none" xmlns="http://www.w3.org/2000/svg">
<path fill-rule="evenodd" clip-rule="evenodd" d="M3.90818 17.178C0.00293704 13.2728 0.0029377 6.94111 3.90818 3.03587C7.81342 -0.869375 14.1451 -0.869375 18.0503 3.03587L19.4645 4.45008L20.8787 3.03587C24.784 -0.869377 31.1156 -0.869377 35.0209 3.03587C38.9261 6.94111 38.9261 13.2728 35.0209 17.178L33.6067 18.5922L19.4645 32.7344L5.32239 18.5922L3.90818 17.178ZM20.1472 8.92234H20.7331L26.1042 23.1411H23.5261L22.3756 19.811L16.8712 19.811L15.7233 23.1411H13.155L18.5065 8.92234H19.0827H20.1472ZM17.541 17.8677L21.7042 17.8677L19.6202 11.8356L17.541 17.8677Z" fill="white"/>
</svg>
