<svg width="38" height="31" viewBox="0 0 38 31" fill="none" xmlns="http://www.w3.org/2000/svg">
<mask id="path-1-inside-1_1141_126" fill="white">
<path fill-rule="evenodd" clip-rule="evenodd" d="M30.4 19.375L19 31L0 11.6251L11.4 9.68014e-05L19 7.75004L26.6 0L38 11.625L30.4 19.375Z"/>
</mask>
<path fill-rule="evenodd" clip-rule="evenodd" d="M30.4 19.375L19 31L0 11.6251L11.4 9.68014e-05L19 7.75004L26.6 0L38 11.625L30.4 19.375Z" fill="#FAFAFA"/>
<path d="M30.4 19.375L32.5419 21.4755L32.5419 21.4755L30.4 19.375ZM19 31L16.858 33.1005L19 35.2847L21.1419 33.1005L19 31ZM0 11.6251L-2.14195 9.52457L-4.20179 11.6251L-2.14195 13.7256L0 11.6251ZM11.4 9.68014e-05L13.5419 -2.1004L11.4 -4.28461L9.25804 -2.1004L11.4 9.68014e-05ZM19 7.75004L16.858 9.85054L19 12.0348L21.1419 9.85054L19 7.75004ZM26.6 0L28.742 -2.10049L26.6 -4.28471L24.4581 -2.10049L26.6 0ZM38 11.625L40.142 13.7254L42.2018 11.625L40.1419 9.52447L38 11.625ZM28.258 17.2745L16.858 28.8995L21.1419 33.1005L32.5419 21.4755L28.258 17.2745ZM21.1419 28.8995L2.14195 9.52457L-2.14195 13.7256L16.858 33.1005L21.1419 28.8995ZM2.14195 13.7256L13.5419 2.10059L9.25804 -2.1004L-2.14195 9.52457L2.14195 13.7256ZM9.25804 2.10059L16.858 9.85054L21.1419 5.64955L13.5419 -2.1004L9.25804 2.10059ZM21.1419 9.85054L28.742 2.10049L24.4581 -2.10049L16.858 5.64955L21.1419 9.85054ZM24.4581 2.10049L35.8581 13.7255L40.1419 9.52447L28.742 -2.10049L24.4581 2.10049ZM35.858 9.52448L28.258 17.2745L32.5419 21.4755L40.142 13.7254L35.858 9.52448Z" fill="#7F3551" mask="url(#path-1-inside-1_1141_126)"/>
</svg>
