<svg width="35" height="45" viewBox="0 0 35 45" fill="none" xmlns="http://www.w3.org/2000/svg">
<path fill-rule="evenodd" clip-rule="evenodd" d="M33.0833 16.0417C33.0833 28.2133 19.9323 35.2522 17.4449 36.4747C17.1893 36.6004 16.894 36.6004 16.6384 36.4747C14.151 35.2522 0.999999 28.2133 0.999999 16.0417C0.999999 7.1821 8.1821 0 17.0417 0C25.9012 0 33.0833 7.1821 33.0833 16.0417ZM31.5302 32.4262C31.0867 32.097 30.4604 32.1897 30.1312 32.6331C29.802 33.0766 29.8947 33.7029 30.3381 34.0321C31.613 34.9785 32.0833 35.9017 32.0833 36.6667C32.0833 37.4316 31.613 38.3548 30.3381 39.3012C29.072 40.2411 27.1837 41.0656 24.8223 41.6499C22.4711 42.2316 19.7862 42.5417 17.0417 42.5417C14.2971 42.5417 11.6123 42.2317 9.26103 41.6499C6.89968 41.0656 5.01135 40.2411 3.74522 39.3012C2.47032 38.3548 2 37.4316 2 36.6667C2 35.9017 2.47032 34.9785 3.74521 34.0321C4.18867 33.7029 4.28131 33.0766 3.95213 32.6331C3.62295 32.1897 2.9966 32.097 2.55314 32.4262C1.01213 33.5701 0 35.018 0 36.6667C0 38.3153 1.01213 39.7632 2.55314 40.9071C4.1029 42.0575 6.26471 42.9688 8.78064 43.5913C11.3067 44.2163 14.1544 44.5417 17.0417 44.5417C19.9289 44.5417 22.7767 44.2163 25.3027 43.5913C27.8186 42.9688 29.9804 42.0575 31.5302 40.9071C33.0712 39.7632 34.0833 38.3153 34.0833 36.6667C34.0833 35.018 33.0712 33.5701 31.5302 32.4262ZM17.3112 7.354H11.276V24.4165H14.2174V17.8306H17.5703L21.0143 24.4165H24.1549V24.2642L20.3114 17.153C20.8181 16.9423 21.2711 16.6838 21.6706 16.3774C22.2409 15.9321 22.6823 15.3852 22.9948 14.7368C23.3073 14.0884 23.4635 13.3384 23.4635 12.4868C23.4635 11.3696 23.2174 10.4321 22.7253 9.67431C22.2409 8.90869 21.5417 8.33056 20.6276 7.93994C19.7135 7.54931 18.6081 7.354 17.3112 7.354ZM14.2174 15.4985H17.3581C18.0612 15.4985 18.6471 15.3735 19.1159 15.1235C19.5846 14.8735 19.9362 14.5337 20.1706 14.104C20.4128 13.6665 20.5339 13.1743 20.5339 12.6274C20.5339 12.0337 20.4167 11.5181 20.1823 11.0806C19.9557 10.6352 19.6042 10.2954 19.1276 10.061C18.651 9.81884 18.0456 9.69775 17.3112 9.69775H14.2174V15.4985Z" fill="#357F54"/>
</svg>
